<svg id="Capa_1" data-name="Capa 1" xmlns="http://www.w3.org/2000/svg" viewBox="0 0 123.51 39.68"><defs><style>.cls-1{stroke:#000;stroke-miterlimit:10;stroke-width:0.5px;}</style></defs><path class="cls-1" d="M29,6.17c.18,0,.28.11.28.33V34.64q0,5.73-3.73,8.57a11.16,11.16,0,0,1-6.94,2.14,11.15,11.15,0,0,1-6.93-2.14A8.63,8.63,0,0,1,9,39.9a.17.17,0,0,1,0-.13.24.24,0,0,1,.28-.28.29.29,0,0,1,.27.18,8.13,8.13,0,0,0,2.52,3.08,10.74,10.74,0,0,0,6.56,2,10.75,10.75,0,0,0,6.57-2q3.54-2.66,3.54-8.11V6.5C28.73,6.28,28.82,6.17,29,6.17Z" transform="translate(-8.74 -5.92)"/><path class="cls-1" d="M42.65,6.34c.19,0,.28.11.28.32V24.45a10.58,10.58,0,0,0,3.21,7.77,11,11,0,0,0,15.55,0,10.55,10.55,0,0,0,3.22-7.77V6.66a.28.28,0,0,1,.32-.32.29.29,0,0,1,.33.32V24.45A11.61,11.61,0,0,1,53.94,36,11.61,11.61,0,0,1,42.32,24.45V6.66A.29.29,0,0,1,42.65,6.34Z" transform="translate(-8.74 -5.92)"/><path class="cls-1" d="M78.87,6.34H89.26a14.21,14.21,0,0,1,6.89,1.53A7,7,0,0,1,100,14.41,7,7,0,0,1,96.15,21a13.87,13.87,0,0,1-6.89,1.58H79.15V35.72c0,.21-.1.32-.3.32s-.3-.11-.3-.32V22.21c0-.18.11-.28.32-.28H89.26a13.24,13.24,0,0,0,6.61-1.53,6.36,6.36,0,0,0,3.44-6,6.36,6.36,0,0,0-3.44-6,13.57,13.57,0,0,0-6.61-1.49H78.87c-.21,0-.32-.1-.32-.3S78.66,6.34,78.87,6.34Z" transform="translate(-8.74 -5.92)"/><path class="cls-1" d="M119.2,6.34a.33.33,0,0,1,.32.18L132,35.62a.16.16,0,0,1,.05.1.29.29,0,0,1-.33.32.31.31,0,0,1-.28-.18L119.2,7.45,107,35.86a.29.29,0,0,1-.28.18.29.29,0,0,1-.32-.32.14.14,0,0,1,0-.1l12.44-29.1A.29.29,0,0,1,119.2,6.34Z" transform="translate(-8.74 -5.92)"/></svg>